<svg xmlns="http://www.w3.org/2000/svg" width="60" height="60" viewBox="5.5 1.5 69 65" fill="none">
	<path d="M42.3344 21.72C42.0267 21.76 41.7313 21.804 41.4195 21.86C41.3129 21.88 41.2021 21.9 41.0954 21.924C41.0954 21.928 41.0954 21.928 41.0954 21.928C40.919 25.108 39.5898 28.232 37.1037 30.652C34.6298 33.064 31.4421 34.36 28.197 34.54C28.1929 34.54 28.1929 34.54 28.1929 34.54C28.1683 34.652 28.1478 34.76 28.1272 34.864C28.0657 35.18 28.0247 35.464 27.9878 35.732V35.756C27.9426 36.076 27.9139 36.356 27.8975 36.608V36.632C27.8647 37.072 27.8483 37.464 27.8483 37.832C27.8483 37.896 27.8483 37.96 27.8524 38.024V38.108C27.8524 38.2 27.8565 38.288 27.8606 38.38V38.408C27.8647 38.508 27.8647 38.596 27.8729 38.684L27.877 38.716V38.748C27.8852 38.86 27.8893 38.972 27.9016 39.08L27.9057 39.112V39.14C27.9139 39.244 27.9221 39.344 27.9344 39.452C27.9426 39.552 27.9508 39.64 27.9631 39.728L27.9672 39.764L27.9713 39.8L27.9754 39.82C27.9837 39.892 27.9919 39.964 28.0042 40.04L28.0288 40.192V40.212C28.0657 40.46 28.1067 40.712 28.1601 40.96L28.1642 40.976L28.1683 40.988C28.2216 41.284 28.2913 41.58 28.3693 41.868C28.4103 42.036 28.4595 42.204 28.5088 42.372H28.5129C33.7108 42.12 38.8308 40.06 42.7939 36.196C46.7693 32.32 48.8821 27.3 49.1283 22.212C48.9642 22.164 48.8001 22.12 48.6319 22.08C48.316 22.004 48.0001 21.936 47.6801 21.876C47.3601 21.816 47.0606 21.768 46.7775 21.732C46.0226 21.632 45.2677 21.58 44.5088 21.58C44.0698 21.58 43.6431 21.596 43.2452 21.624C42.876 21.656 42.5929 21.684 42.3344 21.72Z" fill="#258FFF"/>
	<path d="M46.437 10.912C47.7087 13.152 48.5334 15.564 48.9108 18.036C48.9641 18.388 49.0093 18.74 49.0421 19.096C49.079 19.444 49.1077 19.792 49.1241 20.14C49.4728 20.224 49.8216 20.32 50.1662 20.428C50.5149 20.532 50.8595 20.652 51.2 20.78C51.2041 20.78 51.2082 20.784 51.2082 20.784C51.3641 20.84 51.52 20.9 51.6759 20.964C53.92 21.868 55.9795 23.204 57.7477 24.928C61.2841 28.376 63.2329 32.96 63.2329 37.836C63.2329 42.708 61.2841 47.296 57.7477 50.74C54.2113 54.188 49.5098 56.088 44.5087 56.088C39.5077 56.088 34.8062 54.188 31.2739 50.74C29.3662 48.88 27.9549 46.72 27.0482 44.408C27.0441 44.404 27.0441 44.4 27.0441 44.396C26.9128 44.064 26.7898 43.732 26.6831 43.392C26.679 43.392 26.679 43.392 26.679 43.388C26.5723 43.052 26.4739 42.716 26.3836 42.376C26.1867 42.368 25.9898 42.356 25.7928 42.34C25.7805 42.34 25.7682 42.34 25.7559 42.336C25.6534 42.332 25.5549 42.324 25.4564 42.312C25.4072 42.308 25.3621 42.304 25.3128 42.3C25.2759 42.296 25.2349 42.292 25.198 42.288C25.0544 42.276 24.9149 42.26 24.7713 42.244C24.5908 42.224 24.4103 42.2 24.2298 42.172C24.119 42.156 24.0082 42.14 23.8934 42.12C23.7744 42.104 23.6595 42.084 23.5405 42.06C23.4216 42.04 23.3067 42.02 23.1918 41.996C22.8062 41.924 22.4205 41.84 22.039 41.744C21.9487 41.724 21.8585 41.7 21.7641 41.676C21.2964 41.556 20.8328 41.42 20.3734 41.264C20.1272 41.184 19.8851 41.1 19.6431 41.008C19.4216 40.928 19.1959 40.84 18.9744 40.748C18.72 40.644 18.4657 40.536 18.2154 40.42C18.1005 40.372 17.9857 40.316 17.8749 40.26C17.8216 40.24 17.7723 40.216 17.719 40.184C17.6205 40.14 17.5221 40.092 17.4236 40.04C17.4072 40.036 17.3908 40.028 17.3744 40.016C17.2226 39.944 17.0708 39.864 16.919 39.78C16.8575 39.748 16.7959 39.716 16.7344 39.68C16.558 39.584 16.3816 39.484 16.2093 39.38C16.1272 39.336 16.0493 39.288 15.9713 39.24C15.9385 39.224 15.9016 39.2 15.8687 39.176C15.5118 38.964 15.1631 38.736 14.8185 38.496C14.8267 38.912 14.8472 39.328 14.8759 39.744C14.8718 39.748 14.8718 39.752 14.8759 39.76C14.9005 40.176 14.9375 40.588 14.9867 41V41.004C14.9867 41.028 14.9867 41.044 14.9908 41.068C15.7293 47.58 18.6872 53.612 23.5077 58.312C29.12 63.78 36.5785 66.792 44.5087 66.792C52.4431 66.792 59.9016 63.78 65.5098 58.312C71.1221 52.84 74.2113 45.572 74.2113 37.836C74.2113 33.968 73.44 30.216 71.9672 26.748C70.4903 23.28 68.3159 20.092 65.5098 17.36C60.6769 12.644 54.4657 9.752 47.7662 9.048C47.7416 9.044 47.7128 9.04 47.6882 9.04C47.2657 8.996 46.8431 8.96 46.4205 8.936H46.4C45.9775 8.908 45.5508 8.892 45.1241 8.884C45.3703 9.216 45.6 9.556 45.8216 9.9C46.039 10.232 46.2441 10.572 46.437 10.912Z" fill="#258FFF"/>
	<path d="M17.7149 30.652C17.7518 30.688 17.7846 30.72 17.8215 30.752C18.039 30.96 18.2605 31.16 18.4902 31.348C18.5969 31.44 18.7077 31.528 18.8185 31.616C18.9456 31.716 19.0769 31.816 19.2123 31.912C19.3354 32.004 19.4585 32.092 19.5856 32.176C19.7292 32.276 19.8769 32.372 20.0246 32.464C20.0574 32.484 20.0944 32.508 20.1272 32.528C20.2133 32.58 20.2995 32.632 20.3856 32.68C20.402 32.692 20.4185 32.7 20.4349 32.708C20.5415 32.772 20.6523 32.832 20.759 32.888C20.9928 33.016 21.2267 33.136 21.4646 33.244C21.4933 33.26 21.5261 33.276 21.559 33.288C21.6164 33.316 21.6779 33.344 21.7395 33.368C21.8585 33.424 21.9815 33.476 22.1046 33.524C22.2277 33.576 22.3508 33.624 22.4738 33.668C22.5846 33.712 22.6995 33.752 22.8102 33.792C23.2328 33.936 23.6554 34.06 24.0861 34.164C24.2256 34.2 24.3692 34.232 24.5087 34.26C24.599 34.284 24.6892 34.3 24.7836 34.316C24.882 34.336 24.9805 34.352 25.079 34.368C25.0831 34.372 25.0872 34.372 25.0913 34.372C25.4277 34.428 25.7682 34.472 26.1087 34.504C26.1702 34.176 26.2441 33.844 26.3261 33.52C26.3261 33.516 26.3261 33.516 26.3261 33.516C26.4041 33.188 26.4943 32.864 26.5969 32.54C26.5969 32.536 26.5969 32.536 26.5969 32.532C27.4626 29.748 29.0174 27.124 31.2738 24.928C33.4728 22.784 36.1313 21.236 39.0277 20.376C39.0318 20.376 39.0318 20.372 39.0359 20.372C39.3682 20.276 39.7005 20.184 40.0369 20.108H40.041C40.3733 20.024 40.7097 19.952 41.0502 19.892C41.0174 19.56 40.9723 19.228 40.9108 18.9C40.8533 18.572 40.7836 18.244 40.6974 17.92C40.1231 15.688 38.9538 13.576 37.1815 11.828C37.1569 11.8 37.1323 11.776 37.1036 11.748C36.8451 11.496 36.5825 11.256 36.3077 11.032C35.9877 10.76 35.6595 10.512 35.3231 10.28C34.9251 10.408 34.5272 10.54 34.1333 10.684C34.1251 10.688 34.1169 10.688 34.1087 10.696C33.7313 10.828 33.362 10.972 32.9928 11.124C32.9559 11.14 32.9231 11.152 32.8902 11.168H32.8861C29.4277 12.604 26.2482 14.688 23.5077 17.36C20.7467 20.048 18.601 23.172 17.1323 26.576C17.1159 26.604 17.1036 26.636 17.0913 26.668C16.9354 27.028 16.7877 27.392 16.6523 27.76C16.6482 27.768 16.6441 27.776 16.6441 27.784C16.4964 28.168 16.3569 28.552 16.2297 28.944C16.3692 29.136 16.5169 29.328 16.6728 29.512C16.6851 29.524 16.6933 29.54 16.7015 29.552C16.7302 29.592 16.7631 29.628 16.7959 29.664C16.8615 29.744 16.9272 29.824 17.001 29.9C17.001 29.9 17.001 29.9 17.001 29.904C17.2267 30.16 17.4646 30.412 17.7149 30.652Z" fill="#258FFF"/>
	<path d="M12.7303 36.848C12.7467 36.864 12.759 36.876 12.7754 36.888C12.7959 36.164 12.8452 35.444 12.9149 34.724C13.1036 32.884 13.4564 31.072 13.9734 29.304C14.0677 28.98 14.1703 28.656 14.277 28.332C14.4616 27.768 14.6667 27.212 14.8882 26.66C14.8759 26.636 14.8636 26.612 14.8513 26.588V26.584C14.0964 24.908 13.6985 23.084 13.6985 21.2C13.6985 17.628 15.1221 14.272 17.7149 11.748C20.3857 9.14001 23.8975 7.836 27.4093 7.836C29.1652 7.836 30.9211 8.164 32.5703 8.816C32.677 8.86001 32.7836 8.90001 32.8862 8.948C32.9108 8.95601 32.9354 8.96801 32.96 8.98001C33.5303 8.76 34.1046 8.56001 34.6913 8.37601C35.0195 8.27201 35.3518 8.172 35.6841 8.08C37.5057 7.572 39.3682 7.22 41.2554 7.036C41.9898 6.964 42.7282 6.916 43.4708 6.892C43.4585 6.876 43.4462 6.864 43.4298 6.852C43.2246 6.632 43.0113 6.412 42.7939 6.2C42.2646 5.684 41.7108 5.2 41.1446 4.748C40.8575 4.52 40.5703 4.304 40.2749 4.092C37.4893 2.1 34.3221 0.832 31.0523 0.296C30.7077 0.24 30.3631 0.192 30.0144 0.152C29.1488 0.052 28.279 0 27.4093 0C26.5395 0 25.6698 0.052 24.8041 0.152C24.4554 0.192 24.1108 0.24 23.7662 0.296C20.4964 0.832 17.3334 2.1 14.5477 4.092C14.2523 4.304 13.9652 4.52 13.678 4.748C13.1118 5.2 12.558 5.684 12.0288 6.2C7.91798 10.208 5.65747 15.536 5.65747 21.2C5.65747 26.864 7.91798 32.192 12.0288 36.196C12.2585 36.42 12.4923 36.64 12.7303 36.848Z" fill="#258FFF"/>
</svg>
