<svg xmlns="http://www.w3.org/2000/svg" fill-rule="evenodd" clip-rule="evenodd"><defs><style>:root svg:not(:target){display:none}</style></defs><svg id="arrow-simple" viewBox="0 0 8 8" fill="none" stroke="currentcolor" stroke-width="1"><path d="m1 3 3 3 3-3"/></svg><svg id="logo" viewBox="5.5 1.5 69 65" fill="currentcolor"><path d="M42.334 21.72c-.307.04-.603.084-.915.14-.106.02-.217.04-.324.064v.004a13.144 13.144 0 0 1-3.991 8.724c-2.474 2.412-5.662 3.708-8.907 3.888h-.004c-.025.112-.045.22-.066.324-.061.316-.102.6-.14.868v.024c-.044.32-.073.6-.09.852v.024c-.032.44-.049.832-.049 1.2a3 3 0 0 0 .004.192v.084c0 .092.005.18.009.272v.028c.004.1.004.188.012.276l.004.032v.032c.008.112.012.224.025.332l.004.032v.028c.008.104.016.204.028.312.009.1.017.188.03.276l.003.036.004.036.004.02c.009.072.017.144.03.22l.024.152v.02c.037.248.078.5.131.748l.004.016.004.012c.054.296.123.592.201.88.041.168.09.336.14.504h.004c5.198-.252 10.318-2.312 14.28-6.176 3.976-3.876 6.09-8.896 6.335-13.984a10.013 10.013 0 0 0-.496-.132 19.14 19.14 0 0 0-.952-.204 17.245 17.245 0 0 0-4.435-.252c-.369.032-.652.06-.91.096Z"/><path d="M46.437 10.912a20.756 20.756 0 0 1 2.474 7.124c.053.352.098.704.131 1.06.037.348.066.696.082 1.044.349.084.698.18 1.042.288.349.104.694.224 1.034.352a11.214 11.214 0 0 1 .476.184 18.689 18.689 0 0 1 6.072 3.964c3.536 3.448 5.485 8.032 5.485 12.908 0 4.872-1.949 9.46-5.485 12.904-3.537 3.448-8.238 5.348-13.24 5.348-5 0-9.702-1.9-13.234-5.348a18.026 18.026 0 0 1-4.226-6.332c-.004-.004-.004-.008-.004-.012a14.68 14.68 0 0 1-.36-1.004c-.005 0-.005 0-.005-.004a21.971 21.971 0 0 1-.295-1.012c-.197-.008-.394-.02-.591-.036-.012 0-.025 0-.037-.004a3.63 3.63 0 0 1-.3-.024l-.143-.012-.115-.012c-.144-.012-.283-.028-.427-.044-.18-.02-.36-.044-.541-.072a11.592 11.592 0 0 1-.337-.052 5.417 5.417 0 0 1-.352-.06 19.088 19.088 0 0 1-1.502-.316c-.09-.02-.18-.044-.275-.068-.468-.12-.931-.256-1.39-.412a14.99 14.99 0 0 1-.73-.256c-.222-.08-.448-.168-.67-.26a18.029 18.029 0 0 1-.759-.328 5.253 5.253 0 0 1-.34-.16.931.931 0 0 1-.156-.076 5.007 5.007 0 0 1-.295-.144.14.14 0 0 1-.05-.024 8.232 8.232 0 0 1-.455-.236c-.061-.032-.123-.064-.185-.1a13.577 13.577 0 0 1-.525-.3 4.642 4.642 0 0 1-.238-.14.724.724 0 0 1-.102-.064 17.29 17.29 0 0 1-1.05-.68c.008.416.028.832.057 1.248a20.787 20.787 0 0 0 .11 1.256v.004c0 .024 0 .04.005.064.738 6.512 3.696 12.544 8.517 17.244 5.612 5.468 13.07 8.48 21 8.48 7.935 0 15.394-3.012 21.002-8.48 5.612-5.472 8.701-12.74 8.701-20.476 0-3.868-.771-7.62-2.244-11.088a28.899 28.899 0 0 0-6.457-9.388c-4.833-4.716-11.044-7.608-17.744-8.312a27.048 27.048 0 0 0-1.346-.112h-.02c-.422-.028-.85-.044-1.276-.052.246.332.476.672.698 1.016.217.332.422.672.615 1.012Z"/><path d="M17.715 30.652c.037.036.07.068.107.1.217.208.439.408.668.596.107.092.218.18.329.268.127.1.258.2.393.296.123.092.247.18.374.264.143.1.29.196.439.288l.102.064a7.6 7.6 0 0 0 .259.152c.016.012.033.02.049.028.107.064.217.124.324.18a10.57 10.57 0 0 0 .8.4c.057.028.119.056.18.08.12.056.242.108.366.156.123.052.246.1.369.144.11.044.226.084.336.124a14.485 14.485 0 0 0 1.699.468c.09.024.18.04.275.056.098.02.197.036.295.052.004.004.008.004.012.004.337.056.677.1 1.018.132.061-.328.135-.66.217-.984v-.004c.078-.328.168-.652.27-.976v-.008a18.07 18.07 0 0 1 4.678-7.604 18.726 18.726 0 0 1 7.754-4.552c.004 0 .004-.004.008-.004.332-.096.664-.188 1-.264h.005a14.03 14.03 0 0 1 1.01-.216 11.549 11.549 0 0 0-.14-.992 13.124 13.124 0 0 0-3.73-7.072 12.05 12.05 0 0 0-.874-.796c-.32-.272-.648-.52-.984-.752-.398.128-.796.26-1.19.404-.008.004-.016.004-.024.012-.378.132-.747.276-1.116.428-.037.016-.07.028-.103.044h-.004a29.768 29.768 0 0 0-9.378 6.192c-2.761 2.688-4.907 5.812-6.376 9.216a20.987 20.987 0 0 0-.488 1.208c-.148.384-.287.768-.414 1.16.14.192.287.384.443.568.012.012.02.028.029.04.028.04.061.076.094.112.066.08.131.16.205.236v.004c.226.256.464.508.714.748Z"/><path d="M12.73 36.848c.017.016.029.028.045.04.02-.724.07-1.444.14-2.164a30.317 30.317 0 0 1 1.362-6.392c.185-.564.39-1.12.611-1.672l-.037-.072v-.004a13.073 13.073 0 0 1-1.153-5.384c0-3.572 1.424-6.928 4.017-9.452 2.67-2.608 6.183-3.912 9.694-3.912 1.756 0 3.512.328 5.161.98.107.044.214.084.316.132a.59.59 0 0 1 .074.032c.57-.22 1.145-.42 1.731-.604a32.463 32.463 0 0 1 6.564-1.34 33.96 33.96 0 0 1 2.216-.144.192.192 0 0 0-.041-.04 19.51 19.51 0 0 0-.636-.652 22.238 22.238 0 0 0-2.52-2.108 21.946 21.946 0 0 0-10.26-3.94C29.15.052 28.28 0 27.41 0a22.704 22.704 0 0 0-3.643.296 21.93 21.93 0 0 0-10.088 4.452c-.566.452-1.12.936-1.65 1.452-4.11 4.008-6.37 9.336-6.37 15s2.26 10.992 6.37 14.996c.23.224.464.444.702.652Z"/></svg><svg id="arrow-curved" viewBox="0 0 170 158" fill="#258FFF"><path d="M166.929 65.88c-17.15 23.487-42.073 46.035-70.384 53.555-14.123 3.752-29.1 3.769-44.434-1.705-15.345-5.479-31.14-16.489-46.828-34.938l-2.286 1.944c15.949 18.754 32.16 30.126 48.106 35.819 15.957 5.697 31.557 5.673 46.212 1.78 29.246-7.769 54.686-30.924 72.036-54.686l-2.422-1.77Zm2.422 1.769a1.5 1.5 0 1 0-2.422-1.77l2.422 1.77ZM4.261 82.269a1.5 1.5 0 0 0-1.616 1.374L1.557 97.1a1.5 1.5 0 0 0 2.99.242l.967-11.96 11.961.966a1.5 1.5 0 0 0 .242-2.99L4.26 82.269Z"/></svg><svg id="plus-1" viewBox="0 0 83 83" fill="none"><path d="M.713 3.202c-.81.48-.937 1.204-.339 1.922l.392.47h5.928c5.886 0 5.93-.003 6.283-.367.511-.528.473-1.339-.085-1.835L12.45 3l-5.706.005c-3.987.004-5.805.063-6.031.197Zm16.354-.006c-.19.095-.427.357-.527.582-.13.297-.18 10.614-.18 37.562 0 39.696-.035 37.898.736 38.204.145.057 3.345.104 7.112.104h6.85l.35-.385c.345-.379.352-.494.393-6.485l.043-6.1 6.04-.044 6.04-.044v1.665c0 1.744.151 2.434.614 2.797.404.316 1.076.276 1.516-.091.358-.3.386-.453.437-2.343l.054-2.024h2.997c1.648 0 3.13-.074 3.293-.164.7-.387.652-1.952-.07-2.237-.15-.06-1.618-.11-3.26-.11h-2.987v-16.4h10.377v4.427c0 2.934.062 4.567.183 4.842.27.613 1.042.9 1.58.588.232-.134.513-.43.625-.657.161-.328.195-5.893.164-26.745l-.039-26.33-.455-.404L58.498 3l-20.542.011c-13.795.008-20.656.068-20.889.185Zm12.264 11.77v9.288H18.954V5.678H29.33v9.288Zm14.593 0v9.288h-12.16V5.678h12.16v9.288Zm12.971 0v9.288H46.518V5.678h10.377v9.288ZM3.678 8.487c-2.185 2.256-2.398 2.527-2.398 3.067 0 .721.546 1.32 1.204 1.32.34 0 .741-.29 1.623-1.172.644-.644 1.22-1.171 1.28-1.171.06 0 .11 14.017.11 31.15v31.15L4.2 71.553c-1.085-1.069-1.384-1.277-1.837-1.277-.676 0-1.246.58-1.246 1.268 0 .413.388.89 2.392 2.941 1.315 1.346 2.5 2.488 2.635 2.537.133.049-1.047.095-2.623.102l-2.867.013-.336.441c-.446.585-.424 1.157.062 1.659l.398.41h5.895c5.709 0 5.906-.01 6.25-.34.53-.51.532-1.41.003-1.877-.29-.256-.71-.293-3.339-.293H6.582l.633-.479c.348-.263 1.49-1.386 2.537-2.496 1.61-1.704 1.905-2.098 1.905-2.54 0-.653-.629-1.346-1.222-1.346-.303 0-.73.3-1.467 1.03l-1.04 1.031V10.493l1.06 1.023c1.212 1.17 1.845 1.332 2.48.636.738-.813.554-1.166-1.961-3.757-3.06-3.153-2.68-3.159-5.829.092Zm25.653 27.482v9.037H18.954V26.93H29.33v9.038Zm14.593 0v9.037h-12.16V26.93h12.16v9.038Zm12.971 0v9.037H46.518V26.93h10.377v9.038Zm6.618 24.726c-12.368 12.77-17.66 18.34-17.737 18.673a1.265 1.265 0 0 0 .686 1.433c.577.271 35.284.263 35.778-.01.78-.428.75.351.755-19.1L83 43.318l-.398-.41a1.272 1.272 0 0 0-.93-.412c-.49 0-1.926 1.44-18.159 18.2Zm16.893 1.966V78.31H50.005l15.16-15.648c8.337-8.606 15.177-15.647 15.2-15.647.022 0 .04 7.041.04 15.647ZM29.33 55.884v8.2H18.954v-16.4H29.33v8.2Zm14.593.002v8.202l-6.04-.044-6.04-.044-.042-8.158-.042-8.159h12.164v8.203Zm24.364 8.912c-5.276 5.446-5.556 5.765-5.556 6.347 0 .463.105.698.428.96.413.335.608.346 5.91.346 3.753 0 5.611-.06 5.888-.19.223-.105.474-.394.558-.643.086-.254.143-2.959.13-6.183l-.023-5.732-.383-.32a1.61 1.61 0 0 0-.89-.32c-.449 0-1.134.649-6.062 5.735Zm4.821 1.88v3.096h-6.077l2.997-3.096c1.648-1.703 3.015-3.096 3.038-3.096.023 0 .042 1.393.042 3.096Zm-43.816 5.146-.043 5.23-5.148.044-5.148.044V66.594h10.383l-.043 5.23Z" fill="#258FFF"/></svg><svg id="plus-2" viewBox="0 0 83 83" fill="none"><path d="M50.286 3.377c-.394.324-.486.56-.486 1.252v.852h-.801c-.535 0-.894.112-1.079.337-.914 1.11-.207 2.359 1.335 2.359.513 0 .545.045.545.77 0 .935.502 1.54 1.278 1.54.693 0 1.304-.779 1.304-1.662 0-.607.04-.648.62-.648.885 0 1.594-.636 1.594-1.428 0-.843-.484-1.268-1.444-1.268h-.77v-.779c0-.57-.121-.905-.453-1.251-.553-.578-1.005-.598-1.643-.074ZM23.896 4.41c-1.12.433-1.626.904-2.178 2.03-.772 1.577-.61 3.088.47 4.372 2.031 2.415 5.754 1.523 6.586-1.579.795-2.963-2.15-5.875-4.878-4.823Zm2.027 2.892c.249.26.453.638.453.84 0 .598-.708 1.383-1.247 1.383-.613 0-1.336-.7-1.336-1.294 0-.565.771-1.402 1.291-1.402.213 0 .59.213.839.473Zm8.24 3.87c-.28.205-.409.496-.407.915.003.723.13.96.677 1.26.576.316.756.28 1.265-.251.569-.593.578-1.263.026-1.805-.504-.494-.996-.531-1.56-.119ZM68.36 15.97c-.859.32-1.833 1.264-2.25 2.18-.47 1.035-.297 2.868.365 3.865.634.956 2.074 1.76 3.153 1.76 1.078 0 2.519-.804 3.153-1.76.71-1.069.838-2.831.29-3.955-.693-1.416-2.142-2.385-3.535-2.363-.254.004-.783.127-1.176.273Zm-13.094 2.813c-.611.502-.648 1.353-.082 1.904.798.776 1.994.212 1.994-.942 0-.564-.702-1.362-1.2-1.362-.124 0-.445.18-.712.4Zm14.881-.178c.222.122.464.317.539.433.258.404.139 1.273-.228 1.656-.765.799-2.03.2-2.03-.963 0-.62.555-1.348 1.028-1.348.158 0 .47.1.691.222Zm-31.76 2.185c-.95.31-1.757 1.056-2.272 2.103-.529 1.072-.41 2.858.262 3.917.598.943 2.094 1.779 3.186 1.779s2.589-.836 3.187-1.78c.636-1.002.788-2.846.317-3.822-.53-1.097-1.394-1.896-2.38-2.202-1.087-.337-1.25-.337-2.3.005Zm-25.543 2.806c-.395.324-.486.56-.486 1.252v.852h-.802c-1.19 0-1.821.913-1.325 1.914.275.555.73.775 1.62.78.468.002.507.061.507.772 0 .935.502 1.54 1.277 1.54.694 0 1.305-.778 1.305-1.662 0-.607.04-.648.62-.648.885 0 1.593-.635 1.593-1.428 0-.843-.483-1.268-1.444-1.268h-.769v-.779c0-.57-.121-.905-.453-1.251-.553-.578-1.005-.598-1.643-.074Zm27.239-.177c.546.3.673.537.677 1.26a1.17 1.17 0 0 1-2.027.829 1.296 1.296 0 0 1 .117-1.912c.562-.46.685-.479 1.233-.177ZM50.2 32.884c-.278.31-.401.69-.401 1.242v.795l-.857.059c-.68.046-.934.166-1.227.576-.322.451-.34.59-.14 1.094.236.592.953.988 1.79.988.38 0 .434.092.434.737 0 1.412 1.42 2.1 2.2 1.066.21-.279.382-.787.382-1.13 0-.583.048-.63.752-.728.967-.135 1.462-.605 1.462-1.39 0-.826-.491-1.25-1.444-1.25h-.77v-.78c0-1.45-1.326-2.228-2.181-1.279ZM28.958 33.98c-.76.794-.235 2.166.83 2.166s1.59-1.372.83-2.166c-.203-.212-.577-.385-.83-.385-.254 0-.627.173-.83.385Zm34.308-.089c-1.375.645-2.056 1.715-2.07 3.25-.008.978.33 1.961.916 2.66.253.3.238.348-.16.508-.242.098-4.88 2.184-10.308 4.638-6.643 3.003-10.018 4.434-10.328 4.382-.254-.043-6.551-2.83-13.994-6.194s-13.855-6.162-14.25-6.217c-2.105-.295-4.15 1.971-3.757 4.163.312 1.735.896 2.266 4.082 3.717 20.582 9.37 27.263 12.289 28.118 12.289.896 0 1.606-.307 21.186-9.167 1.262-.571 2.36-1.038 2.441-1.038.081 0 .2.34.263.755.48 3.135 4.426 4.214 6.216 1.701.406-.568 3.047-7.586 3.335-8.857.197-.871-.243-2.236-.975-3.022-.556-.598-1.281-.96-4.445-2.22-4.075-1.624-5.177-1.861-6.27-1.348Zm5.18 3.816c2.32.923 3.647 1.553 3.81 1.809.222.349.096.81-1.153 4.208-.771 2.099-1.49 3.928-1.6 4.064-.321.405-1.038.292-1.356-.213-.27-.43-.257-.546.18-1.67.555-1.426.584-1.915.147-2.48-.504-.65-1.22-.529-3.734.628-8.561 3.94-22.943 10.338-23.238 10.338-.196 0-1.293-.424-2.439-.943-1.145-.519-7.601-3.431-14.347-6.473-6.747-3.04-12.411-5.663-12.589-5.826-.177-.163-.323-.428-.323-.588 0-.378.537-.997.865-.997.14 0 5.75 2.48 12.467 5.511a32464.9 32464.9 0 0 0 14.093 6.355c1.033.463 2.056.843 2.272.843.216 0 3.935-1.595 8.265-3.544 4.33-1.95 9.823-4.422 12.207-5.493 2.384-1.072 4.48-2.13 4.658-2.35.74-.922.227-1.728-1.575-2.472-1.267-.523-1.582-.974-1.155-1.655.162-.257.45-.468.639-.468.19 0 1.947.637 3.905 1.416ZM2.416 60.674c-1.655.861-2.52 2.498-2.38 4.505.102 1.479.851 2.762 2.075 3.552l.902.582h76.972l.902-.582c2.952-1.906 2.753-6.59-.343-8.095l-.957-.465-38.098-.002-38.098-.002-.975.507Zm3.536 6.002c-.789.032-1.7.008-2.026-.055-1.367-.264-1.819-2.138-.777-3.225l.567-.593 1.835 1.907 1.835 1.907-1.434.06Zm8.157-1.888 1.837 1.926h-4.795l-1.838-1.926-1.837-1.925h4.796l1.837 1.925Zm8.484 0 1.838 1.926h-4.796L17.8 64.788l-1.838-1.925h4.796l1.837 1.925Zm8.67 0 1.837 1.926h-4.98l-1.838-1.926-1.837-1.925h4.98l1.837 1.925Zm8.484 0 1.837 1.926h-4.98l-1.837-1.926-1.838-1.925h4.98l1.838 1.925Zm8.484 0 1.838 1.926h-5.025l-1.7-1.926-1.701-1.925h4.752l1.837 1.925Zm8.485 0 1.837 1.926h-4.796l-1.837-1.926-1.837-1.925h4.795l1.838 1.925Zm8.484 0 1.838 1.926h-4.796l-1.837-1.926-1.838-1.925h4.796l1.837 1.925Zm8.485 0 1.837 1.926h-4.796l-1.837-1.926-1.837-1.925h4.795l1.838 1.925Zm6.193-1.363c.717.75.756 1.924.086 2.623-.249.26-.562.473-.695.473-.134 0-1.028-.823-1.988-1.83l-1.745-1.828h1.901c1.856 0 1.914.013 2.44.562ZM.305 73.035C.05 73.33 0 73.86 0 76.295v2.907l.486.399.486.399h81.056l.486-.4.486-.398V76.26c0-2.604-.039-2.977-.337-3.26-.312-.294-3.436-.318-41.195-.318-39.348 0-40.869.013-41.163.352Zm80.113 3.306v.963H2.582V75.38h77.836v.962Z" fill="#258FFF"/></svg><svg id="plus-3" viewBox="0 0 83 83" fill="none"><g clip-path="url(#clip0_14_923)"><path d="M40.512.158C40.001.346.848 32.797.406 33.4c-.48.654-.541 1.737-.146 2.588.426.917 3.926 4.833 4.681 5.238.747.4 1.83.38 2.653-.049l.646-.336v3.685l-.492.203c-.688.285-1.706 1.494-2.01 2.387-.37 1.083-.385 17.874-.018 19.105.294.983 1.046 1.92 1.887 2.348l.633.323.003 5.874c.004 5.363.03 5.93.304 6.522.346.75.88 1.284 1.529 1.53.642.243 62.206.243 62.849 0 .65-.246 1.183-.78 1.53-1.53.273-.592.299-1.159.302-6.522l.004-5.874.633-.323c.84-.429 1.593-1.365 1.886-2.348.354-1.186.353-17.807 0-18.999-.28-.94-1.103-1.969-1.934-2.416l-.585-.315v-1.827c0-1.786.085-2.069.478-1.596.304.367 1.54.567 2.304.373.753-.19 1.014-.432 3.404-3.144 1.022-1.16 1.806-2.205 1.925-2.565.25-.754.124-1.786-.284-2.34-.17-.23-2-1.83-4.068-3.554l-3.76-3.134v-8.017c0-6.849-.036-8.105-.249-8.615-.336-.804-.682-1.166-1.454-1.52-.572-.263-1.108-.298-4.543-.298-4.228 0-4.723.088-5.546.985-.613.668-.7 1.193-.7 4.21v2.91l-3.854-3.196a8809.467 8809.467 0 0 1-9.418-7.825C45.936 2.792 43.132.544 42.765.343a2.767 2.767 0 0 0-2.253-.185Zm24.231 21.858 15.518 12.877-.785.904c-.432.498-1.217 1.373-1.745 1.946l-.96 1.041-5.67-4.705C42.23 10.117 42.124 10.03 41.508 10.03c-.634 0 .4-.838-26.2 21.223-4.904 4.066-8.966 7.415-9.028 7.441-.061.026-.883-.821-1.827-1.884l-1.715-1.932 12.11-10.033L34.238 8.78l7.282-6.033 3.853 3.195 19.371 16.073Zm7.26-4.352c0 3.664-.06 6.637-.134 6.607-.074-.03-1.638-1.294-3.476-2.81l-3.342-2.756-.012-3.85-.013-3.851h6.977v6.66ZM53.14 22.788l15.17 12.576 3.692 3.06v5.817h-4.868c-4.6 0-4.867-.017-4.867-.296 0-.57-.5-1.755-.995-2.353-.274-.333-.874-.803-1.334-1.045l-.835-.44h-9.248c-9.084 0-9.261.005-9.993.343-1.345.622-2.136 1.685-2.492 3.345l-.095.446H10.998v-5.808l15.13-12.566c8.32-6.91 15.22-12.572 15.332-12.58.111-.007 5.368 4.268 11.681 9.501Zm5.904 20.466.383.31.045 9.336.044 9.337H49.273l-.398.398a1.29 1.29 0 0 0-.398.98c0 .402.123.706.398.98l.398.399H59.51v5.512H40.032l.045-2.716.044-2.715 2.39-.081c2.16-.074 2.422-.114 2.733-.426.514-.514.47-1.481-.086-1.96-.406-.349-.567-.37-2.78-.37H40.03l.045-9.23.046-9.228.393-.418.394-.418h8.877c8.498 0 8.894.013 9.26.31ZM11.483 50.16l-3.162 3.163-.048-2.312c-.058-2.78.014-3.253.563-3.684.386-.303.648-.331 3.115-.331h2.694l-3.162 3.163ZM17 55.67l-8.679 8.676-.044-3.523-.044-3.523 5.154-5.152 5.154-5.152h7.14L17 55.672Zm19.34-8.31c-.19.202-4.53 4.581-9.64 9.733l-9.293 9.368-3.529-.005c-1.941-.002-3.529-.059-3.529-.125 0-.067 4.326-4.444 9.613-9.728l9.612-9.607h7.116l-.35.365Zm32.255-.322c0 .023-1.423 1.463-3.163 3.2l-3.164 3.16v-6.402h3.164c1.74 0 3.163.019 3.163.042Zm5.63.349c.449.386.455.419.504 2.472l.049 2.082-6.255 6.241-6.255 6.242v-7.131l5.15-5.148c4.903-4.902 5.18-5.149 5.75-5.149.401 0 .753.13 1.056.39ZM32.864 62.03l-4.423 4.423h-7.14l7.95-7.945 7.949-7.946.044 3.523.043 3.523-4.423 4.422Zm41.737 3.522c-.31.816-.853.9-5.758.9-2.457 0-4.467-.053-4.467-.12 0-.066 2.318-2.438 5.151-5.27l5.152-5.15.043 4.605c.026 2.814-.021 4.772-.12 5.035Zm-37.32-1.531v2.432h-4.945l2.43-2.432c1.336-1.338 2.449-2.432 2.472-2.432.024 0 .043 1.094.043 2.432Zm0 8.598c0 3.792.12 4.403.919 4.707.502.19.953.118 1.434-.233.28-.204.335-.478.405-1.993l.081-1.756h2.758l.082 1.719c.087 1.852.217 2.168.956 2.33 1.237.272 1.802-.591 1.802-2.754v-1.39l1.338.047 1.339.048.08 1.756c.07 1.515.127 1.79.407 1.993.797.582 1.726.395 2.145-.43.117-.234.203-1.028.205-1.9l.002-1.5h2.758l.005 1.661c.006 1.726.098 2.015.755 2.365.572.304 1.018.22 1.524-.285.462-.461.474-.518.474-2.108v-1.633h2.759v1.633c0 1.59.012 1.647.474 2.108.615.615 1.194.615 1.81 0l.474-.474v-7.32h9.735v11.024H10.998V69.21h26.284v3.41Z" fill="#258FFF"/></g><defs><clipPath id="clip0_14_923"><path fill="#fff" d="M0 0h83v83H0z"/></clipPath></defs></svg><svg id="plus-4" viewBox="0 0 83 83" fill="none"><g clip-path="url(#clip0_14_925)"><path d="M.398.398 0 .796v81.408l.398.398.398.398h81.408l.398-.398.398-.398V.796l-.398-.398L82.204 0H.796L.398.398Zm25.83 3.134c.804 2.497 3.656 6.138 6.503 8.302.633.48 1.15.914 1.15.964-.001.05-.968.632-2.149 1.295-3.886 2.183-8.623 5.218-11.458 7.343l-1.044.783-.681-1.262c-3.02-5.59-6.653-10.43-12.69-16.9L4.34 2.433h21.533l.354 1.1ZM60.776 2.5c-.038.038-.978.299-2.09.58-5.932 1.497-13.154 4.15-19.494 7.16l-2.712 1.29-.75-.517c-1.357-.933-3.535-2.83-4.374-3.81-1.404-1.637-2.809-3.912-2.82-4.568-.003-.16 3.334-.202 16.153-.202 8.886 0 16.126.03 16.088.068Zm19.792 6.581v6.65l-.364-.08c-3.454-.756-8.32-.724-13.09.085-4.44.753-10.819 2.671-15.549 4.675-1.284.544-2.352.971-2.373.948-.02-.023.47-1.115 1.091-2.426 1.06-2.236 1.116-2.413.914-2.836a1.647 1.647 0 0 0-.66-.663c-.922-.442-1.161-.145-3.201 3.971l-1.864 3.761-2.16 2.06c-3.266 3.117-5.85 6.198-7.743 9.236l-.778 1.248-.531-.63c-.724-.86-2.192-3.75-2.713-5.342-.804-2.456-1.083-4.291-1.179-7.772-.05-1.783-.023-3.494.058-3.801.123-.466.348-.677 1.356-1.273 3.577-2.115 9.163-4.873 13.7-6.762 2.759-1.149 7.527-2.89 7.63-2.786.035.034-.448 1.121-1.073 2.415-.658 1.362-1.137 2.565-1.137 2.856 0 .916 1.11 1.498 1.832.962.15-.112 1.071-1.821 2.046-3.799 1.748-3.545 1.781-3.599 2.392-3.772 6.67-1.892 14.564-3.177 21.289-3.467.58-.025 1.29-.059 1.58-.076l.527-.031v6.65Zm-72.634.973c3.657 4.322 6.442 8.32 8.447 12.131l.884 1.679-.81.727c-3.284 2.944-7.396 5.325-11.556 6.69-1.095.36-2.098.655-2.229.655-.208 0-.238-1.774-.232-13.901l.006-13.901L4.3 6.043a95.42 95.42 0 0 1 3.635 4.011Zm66.7 7.9c-.057.245-.393 1.32-.745 2.39-1.149 3.487-3.359 7.542-6.093 11.178-1.308 1.74-4.5 5.493-5.428 6.382l-.56.537-.105-8.967c-.057-4.932-.122-9.184-.143-9.449-.038-.463.001-.492 1.014-.77 3.271-.897 8.072-1.637 11.148-1.72l1.017-.027-.105.446Zm5.04.11.813.18.042 11.145.042 11.143-1.177-.592c-3.331-1.677-6.45-4.54-8.06-7.4l-.527-.935.894-1.335c2.449-3.652 4.612-8.438 5.311-11.753l.18-.854.836.11c.459.061 1.2.192 1.647.291Zm-51.839 2.24c-.135 1.478.153 5.216.55 7.133.793 3.835 2.537 7.643 4.553 9.939l.497.565-.902 1.982a86.565 86.565 0 0 0-1.255 2.874c-.481 1.216-1.527 4.573-1.782 5.722-.115.516-.27.977-.346 1.024-.075.046-1.28-.364-2.678-.913a102.3 102.3 0 0 0-4.879-1.75l-2.338-.755.107-.894c.223-1.869.56-5.332.666-6.84.108-1.537.102-1.579-.306-1.986-.52-.52-1.14-.534-1.638-.035-.311.311-.402.62-.489 1.662-.476 5.692-1.047 10.034-1.917 14.577l-.52 2.717-1.379.284c-1.863.383-2.688.675-4.782 1.69-1.638.793-4.177 2.37-5.876 3.649l-.69.519V34.569l1.412-.354c4.119-1.033 9.14-3.598 12.773-6.526.94-.757.976-.771 1.078-.417.058.203.113 1.543.122 2.98.015 2.384.046 2.65.352 3.04.45.57 1.245.582 1.768.025l.379-.403-.096-4.137-.096-4.136 1.57-1.168c1.58-1.176 6.004-4.182 6.154-4.182.045 0 .04.456-.012 1.013ZM59.234 30.64c.012 8.851-.041 10.345-.575 16.251l-.186 2.067-2.124.009c-1.168.005-2.731.1-3.475.212l-1.351.203-.818-1.63c-2.425-4.834-5.512-9.066-9.217-12.635l-2.065-1.99 1.131-1.365c1.958-2.362 3.218-3.704 4.822-5.137 1.3-1.163 1.875-1.542 3.513-2.323 2.499-1.19 4.211-1.895 7.444-3.062l2.594-.937.147.589c.081.324.153 4.71.16 9.748Zm11.289 5.136c1.91 2.6 4.834 4.944 8.294 6.654l1.751.865v6.317c0 3.474-.042 6.317-.095 6.317-.052 0-.776-.23-1.607-.512-1.335-.451-1.57-.488-1.999-.31-.657.272-.942.966-.648 1.58.161.335.48.556 1.19.828.534.203 1.463.561 2.065.796l1.094.425v21.833h-5.646l-.49-.797c-1.278-2.076-2.495-5.565-3.337-9.564-.734-3.49-1.385-9.348-1.387-12.477l-.001-1.198 2.011.078c1.147.044 2.14.01 2.31-.08.806-.422.938-1.3.286-1.912-.4-.375-.53-.395-2.955-.448-3.586-.079-6.8.37-9.808 1.37-.697.232-1.312.376-1.367.32-.056-.055.092-1.576.328-3.38.236-1.804.554-4.848.706-6.765l.277-3.486 2.129-2.14c1.17-1.177 2.89-3.055 3.822-4.173 1.511-1.814 1.716-2.003 1.898-1.75.112.155.643.879 1.179 1.609ZM41.845 39.01c2.13 2.435 3.735 4.679 5.377 7.516.91 1.574 1.736 3.174 1.734 3.36-.001.069-.449.265-.995.436-2.35.733-5.154 2.412-6.78 4.06-.487.494-.934.898-.993.898-.06 0-1.156-.596-2.437-1.324a82.495 82.495 0 0 0-4.296-2.26l-1.965-.938.288-1.21c1.099-4.61 2.622-8.375 4.974-12.288l1.237-2.058 1.25 1.129c.686.62 1.86 1.826 2.606 2.68ZM21.419 49.425c4.276 1.455 7.188 2.667 11.327 4.715 5.744 2.843 8.668 4.673 14.415 9.025.2.152-.125.366-1.776 1.166-7.202 3.495-17.197 5.565-28.81 5.967-2.652.092-3.118.074-3.056-.12l.967-2.984c1.59-4.9 3.177-11.35 4.017-16.332.206-1.226.423-2.23.48-2.23.059 0 1.154.358 2.436.793Zm36.778 2.036c0 .04-.146 1.07-.326 2.29-.625 4.255-1.217 7.203-2.22 11.05l-.602 2.308-1.709-1.67c-2.914-2.846-6.445-5.715-9.713-7.89l-1.339-.892.781-.715c.984-.901 2.696-2.018 3.995-2.606 1.775-.804 4.816-1.592 7.08-1.835.853-.09 4.053-.123 4.053-.04Zm9.1 8.074c.243 4.998.929 9.715 2.02 13.896.574 2.196 1.759 5.46 2.345 6.458.173.294.315.568.315.608 0 .04-4.523.071-10.051.071-5.528 0-10.051-.044-10.051-.099 0-.054.424-.839.943-1.742 2.65-4.619 4.716-10.362 6.146-17.085l.595-2.797.895-.335c1.943-.727 6.412-1.844 6.646-1.662.037.03.126 1.238.196 2.687Zm-52.87-1.297c0 .367-1.426 5.505-2.237 8.065-1.365 4.303-3.098 8.85-4.79 12.563l-.738 1.621-2.115.046-2.115.045V64.689l1.094-.906c1.448-1.2 4.852-3.456 6.326-4.193 1.23-.616 3.803-1.546 4.292-1.551.156-.002.284.087.283.199ZM52.98 68.593l1.186 1.237-.759 1.924c-1.145 2.906-2.46 5.465-3.963 7.717l-.73 1.09-19.672.004c-15.674.003-19.657-.038-19.595-.2.043-.11.514-1.223 1.046-2.471a249.23 249.23 0 0 0 1.523-3.648l.555-1.378 3.887-.11c12.657-.355 23.776-2.791 31.284-6.854l1.621-.877 1.216 1.165c.669.64 1.75 1.721 2.401 2.401Z" fill="#258FFF"/></g><defs><clipPath id="clip0_14_925"><path fill="#fff" d="M0 0h83v83H0z"/></clipPath></defs></svg><svg id="plus-5" viewBox="0 0 83 83" fill="none" xmlns="http://www.w3.org/2000/svg"><g clip-path="url(#clip0_56_402)"><path d="M33.557.107c-3.548.26-7.915 1.033-8.599 1.522-1.382.988-1.284 3.316.177 4.208.273.167 1.131.427 1.906.578 4.572.89 8.756 2.37 10.415 3.681.316.25.79.845 1.052 1.322.408.743.476 1.042.478 2.1.001 1.163-.047 1.33-.87 3-.478.973-.908 2.054-.955 2.404-.091.683 1.49-.81-24.062 22.723-4.887 4.502-5.16 4.844-5.152 6.475.007 1.479.355 1.939 5.071 6.688 3.195 3.218 4.63 4.551 5.21 4.842 1.023.513 2.297.54 3.262.071.521-.253 3.744-3.682 13.727-14.607l13.046-14.276.874.05c.48.029 1.538-.058 2.35-.19 1.617-.267 2.3-.19 3.18.357.651.403.99 1 1.91 3.364.81 2.083 1.046 2.437 2.907 4.375 2.174 2.265 3.119 2.724 4.433 2.152.29-.126 2.84-2.569 5.738-5.493 5.636-5.69 5.59-5.629 5.33-7.097-.09-.507-.47-.97-2.248-2.739L70.6 23.488l-2.364-.927c-3.093-1.213-3.54-1.65-3.88-3.781-.331-2.084-.37-2.133-6.449-8.259-3.094-3.118-6.046-5.997-6.559-6.398-3.92-3.064-10.504-4.55-17.79-4.016Zm6.24 2.5c2.253.212 4.86.795 6.506 1.455 2.632 1.055 3.298 1.6 9.353 7.638 3.105 3.096 5.761 5.85 5.902 6.118.141.268.349 1.02.461 1.671.472 2.722 1.467 3.782 4.846 5.16l.643.262-.846.827c-.974.953-1.126 1.651-.49 2.245.658.617 1.184.445 2.466-.803l1.166-1.134 1.449 1.461 1.449 1.462-4.86 4.881-4.86 4.881-1.542-1.552-1.54-1.551 2.068-1.988c2.274-2.186 2.443-2.52 1.667-3.297-.733-.737-1.134-.574-3.06 1.248-.96.906-1.764 1.62-1.79 1.586a39.445 39.445 0 0 1-.648-1.355c-.766-1.643-1.469-2.502-2.512-3.072-1.205-.659-2.397-.807-4.16-.517-2.671.44-1.97.87-7.265-4.45l-4.674-4.694.768-1.53c.422-.843.865-1.898.985-2.345.637-2.387-.223-5.173-2.114-6.843-.91-.804-3.108-1.938-5.137-2.65-1.615-.567-5.582-1.591-6.781-1.75-.832-.112-1.06-.303-.54-.455.157-.045 1.269-.237 2.473-.425 3.962-.62 7.474-.781 10.618-.485Zm2.656 22.84c2.084 2.094 3.76 3.88 3.728 3.97-.047.128-22.874 25.173-25.2 27.648-.409.435-.639.546-1.136.546-.599 0-.79-.17-5.046-4.441-4.152-4.17-4.424-4.478-4.424-5.028 0-.326.126-.729.284-.909.156-.178 6.008-5.587 13.004-12.021 6.997-6.434 13.161-12.116 13.699-12.628.537-.512 1.05-.933 1.14-.936.09-.003 1.868 1.707 3.951 3.8ZM1.783 63.913c-.569.216-1.164.767-1.463 1.355-.275.543-.32.961-.32 3.005 0 2.303.012 2.386.398 2.773l.398.4h9.594l.398-.4c.51-.512.52-1.219.022-1.688-.364-.343-.491-.354-4.377-.354H2.432v-2.766h78.136v2.766H15.295l-.353.377c-.468.5-.449 1.168.047 1.666l.399.4 33.496-.04 33.496-.043.31-.384c.273-.338.31-.663.31-2.733 0-2.65-.186-3.284-1.172-3.99l-.53-.38-39.636-.028c-21.8-.015-39.745.014-39.879.064Zm5.886 9.489c-.195.078-.474.324-.619.546-.248.38-.235.509.225 2.224.27 1.001.614 1.959.766 2.128.627.695 2.01.166 2.01-.77 0-.707-.821-3.543-1.11-3.83-.36-.358-.84-.471-1.272-.298Zm9.515-.05c-.5.182-.811.6-.81 1.09 0 .888.803 3.574 1.161 3.88.756.647 1.918.167 1.918-.791 0-.81-.78-3.511-1.105-3.83-.325-.32-.828-.47-1.164-.348Zm9.29.048c-.417.169-.7.642-.697 1.168.004.708.937 3.612 1.23 3.827.413.303 1.268.263 1.555-.073.457-.533.453-.873-.027-2.614-.604-2.186-1.07-2.709-2.06-2.308Zm9.314.09c-.244.134-.49.427-.546.652-.137.547.705 3.707 1.1 4.134.456.491 1.318.442 1.742-.098.415-.53.415-.642.005-2.076-.575-2.012-.789-2.481-1.221-2.68-.506-.23-.535-.229-1.08.069Zm9.493-.064c-.71.351-.768.916-.282 2.733.524 1.955.844 2.448 1.59 2.448.594 0 1.234-.555 1.232-1.069-.002-.55-.93-3.68-1.158-3.904-.317-.31-.975-.41-1.382-.208Zm9.562-.024c-.195.078-.474.324-.619.546-.248.38-.235.509.225 2.224.552 2.054.8 2.435 1.585 2.435.673 0 1.19-.486 1.19-1.119 0-.641-.887-3.588-1.158-3.846a1.18 1.18 0 0 0-1.223-.24Zm9.514-.05c-.927.337-1.007 1-.386 3.19.495 1.745.722 2.065 1.465 2.065.687 0 1.191-.487 1.191-1.15 0-.735-.802-3.446-1.111-3.757-.318-.318-.821-.47-1.159-.347Zm9.292.05c-.418.166-.7.64-.698 1.166.004.708.937 3.612 1.23 3.827.66.483 1.615.164 1.896-.633.142-.402-.782-3.71-1.13-4.045-.39-.375-.862-.49-1.298-.316ZM.398 80.957c-.219.22-.398.59-.398.821 0 .232.18.602.398.821l.398.4h81.408l.398-.4c.507-.509.507-1.133 0-1.642l-.398-.4H.796l-.398.4Z" fill="#258FFF"/></g><defs><clipPath id="clip0_56_402"><path fill="#fff" d="M0 0h83v83H0z"/></clipPath></defs></svg><svg id="plus-6" viewBox="0 0 83 83" fill="none"><g clip-path="url(#clip0_56_403)"><path d="M8.7.261c-2.294.492-4.772 1.993-6.17 3.74C1.55 5.221.571 7.242.27 8.665c-.361 1.71-.361 63.95 0 65.66.695 3.286 3.019 6.165 6.157 7.63C8.771 83.047 7.481 83 34.228 83h24.166l.398-.398c.219-.22.398-.587.398-.818 0-.231-.18-.6-.398-.818l-.398-.398-24.119-.003c-25.836-.002-24.968.024-26.819-.799-2.435-1.081-4.335-3.522-4.848-6.227-.202-1.068-.202-63.017 0-64.086.513-2.705 2.413-5.145 4.848-6.227 1.896-.843.353-.809 34.505-.763l31.736.042 1.054.378c2.57.92 4.522 2.867 5.388 5.374l.366 1.058v64.363l-.365 1.057c-.868 2.509-2.827 4.46-5.39 5.371-.99.352-1.332.378-5.754.43-4.518.051-4.714.067-5.065.395-.52.487-.49 1.297.062 1.733.408.32.623.336 4.708.336 4.954 0 6.052-.155 8.076-1.138 2.416-1.172 4.03-2.806 5.212-5.275 1.093-2.281 1.038-.327.99-35.74-.04-30.636-.055-32.057-.342-32.91-1.065-3.173-3.148-5.56-6.022-6.9C74.239-.071 76.369-.01 41.407.006 14.02.017 9.682.05 8.7.26Zm16.948 12.48c-.446.567-.424 1.12.062 1.607.776.776 1.871.297 1.871-.818 0-1.14-1.255-1.652-1.933-.789Zm8.58 1.356c-.502.501-.488 1.384.027 1.824.497.424 1.184.362 1.581-.143.446-.567.425-1.12-.061-1.607-.482-.482-1.11-.512-1.548-.074Zm10.373 3.08c-2.251.225-4.435 1.303-5.862 2.892l-.756.842-.54-.316c-1.58-.924-4.618-1.557-6.646-1.384-1.458.124-1.919.43-1.919 1.271 0 .976.397 1.152 2.651 1.17 2.58.023 3.436.29 6.21 1.94.734.435 1.267.197 2.023-.902.806-1.174 1.625-1.886 2.813-2.446 4.222-1.99 8.82.4 9.682 5.033.231 1.243-.013 2.899-.594 4.026-.285.552-3.852 4.218-12.894 13.247l-12.5 12.483-.34-.405c-.459-.546-1.172-2.15-1.443-3.242-.121-.49-.216-1.585-.21-2.432.017-2.44.625-4.23 2.11-6.218 1.044-1.396.995-1.657-.547-2.87-1.566-1.233-2.488-2.332-3.216-3.832-1.886-3.884-1.112-8.343 2-11.52.785-.802 1.013-1.144 1.013-1.518 0-.527-.62-1.279-1.054-1.279-1.453 0-4.208 3.8-5.053 6.971-.383 1.437-.384 4.56-.001 5.999.602 2.266 2.25 5.007 3.779 6.285.39.326.708.645.708.709 0 .064-.254.543-.564 1.064-.762 1.279-1.342 3.05-1.562 4.765-.352 2.746.361 5.96 1.81 8.155l.76 1.152-1.842 1.88c-2.025 2.064-2.221 2.491-1.468 3.198.743.699 1.131.516 3.175-1.498l1.88-1.851.554.467c.772.65 2.475 1.515 3.822 1.94.796.25 1.72.382 3.099.441 2.33.101 3.859-.174 5.718-1.028 1.368-.628 1.515-.651 1.821-.281.321.388 1.76 1.024 2.33 1.029.648.005.758.098 1.295 1.095.97 1.799 3.125 3.272 5.318 3.636 2.452.406 5.284-.789 6.769-2.857.495-.689.52-.702 1.092-.544 1.263.349 3.103-.219 4.305-1.327 1.01-.931 1.471-2.045 1.477-3.57.006-1.44-.403-2.436-1.417-3.45l-.637-.637.211-.753c.24-.855.258-3.151.03-3.735-.12-.308-.04-.61.385-1.462 1.656-3.32 1.675-7.654.047-10.901-1.477-2.95-3.987-5.283-6.718-6.249-.446-.157-.843-.308-.883-.335-.04-.027 1.62-1.746 3.688-3.821 3.246-3.258 3.76-3.84 3.76-4.264 0-.618-.588-1.196-1.216-1.196-.387 0-.953.485-3.33 2.848l-2.862 2.848-.105-.996c-.229-2.194-1.562-4.788-3.166-6.162-1.893-1.622-4.372-2.368-6.99-2.106ZM63.12 27.558c-.724.291-.874 1.406-.27 2.01.14.14.493.254.785.254 1.277 0 1.588-1.837.382-2.258a5.14 5.14 0 0 0-.514-.164c-.01.006-.181.077-.383.158Zm-9.105 4.795c3.93 1.167 6.762 4.636 7.198 8.818.118 1.131-.071 2.642-.502 4.01l-.267.852-.647-.585c-.828-.748-2.397-1.482-3.68-1.72-1.935-.36-4.362.37-5.848 1.761l-.738.69-.884-.437c-.74-.366-1.094-.437-2.18-.434-1.087.003-1.429.073-2.108.432-2.024 1.07-3.148 3.308-2.687 5.35l.171.759-.945.945c-1.157 1.157-1.528 2.105-1.46 3.733l.047 1.1-.886.44a11.28 11.28 0 0 1-1.852.69c-1.221.313-3.592.314-4.911.003-1.041-.245-2.66-.986-3.48-1.591l-.46-.341L40.259 44.46c6.8-6.803 12.48-12.368 12.62-12.368.14 0 .65.118 1.135.261ZM14.938 40.2c-.45.45-.417 1.218.074 1.71.486.486.883.503 1.444.062.857-.674.377-2.096-.707-2.096-.27 0-.63.144-.81.324Zm42.227 6.398c2.267 1.109 3.21 3.944 2.117 6.363-.542 1.2-.477 1.725.262 2.125 1.418.767 2.07 1.828 1.849 3.008-.3 1.593-2.541 2.566-3.769 1.635-.164-.124-.523-.228-.797-.231-.575-.006-1.015.406-1.462 1.367-1.278 2.756-5.053 3.459-7.419 1.381-.612-.537-1.259-1.633-1.462-2.474-.204-.85-.607-1.076-1.878-1.052-.918.017-1.233-.044-1.588-.307-1.659-1.229-1.548-3.495.21-4.334.354-.168.82-.387 1.036-.486.704-.323.747-.914.157-2.137-.497-1.033-.514-1.124-.324-1.834.579-2.165 2.959-2.635 4.476-.884.684.79 1.418.804 2.048.04.25-.304.688-.831.974-1.171 1.286-1.532 3.634-1.957 5.57-1.01Zm9.973 2.077c-.228.116-.466.432-.553.736-.125.436-.094.612.173.97.368.495 1.214.67 1.617.334.688-.57.573-1.708-.208-2.063-.497-.227-.536-.226-1.03.023Zm-27.4 16.654c-.45.45-.417 1.219.074 1.71.486.486.884.503 1.445.062.856-.674.376-2.096-.708-2.096-.27 0-.63.144-.81.324Zm-9.578 2.897c-.814.66-.283 2.129.77 2.129.518 0 1.19-.686 1.19-1.216 0-.53-.671-1.216-1.19-1.216-.217 0-.564.137-.77.303Z" fill="#258FFF"/></g><defs><clipPath id="clip0_56_403"><path fill="#fff" d="M0 0h83v83H0z"/></clipPath></defs></svg><svg id="usatye-saity" viewBox="0 0 77 16" fill="none"><path d="M1.11 9.77c3.5 6.5 12.5 6.21 19.52 5.88 3.41-.16 13.38-1.09 17.84-4.52 4.46 3.43 14.44 4.36 17.84 4.52 7.02.33 16.01.62 19.52-5.88 1.14-2.12 1.85-5.94-.16-7.77-2.17-1.98-6.18-.39-6.37-.31.25-.02 3.46-.29 4.51 1.55.58 1.02.36 2.42-.16 3.26-2.29 3.72-11.07 2.53-20.55-2.45C47.62 1.17 46.64-.2 42.93.01c-1.8.1-3.22.68-4.3 1.53-1-.85-2.36-1.43-4.16-1.53-3.71-.21-5.17 1.16-10.65 4.04-9.47 4.99-18.25 6.18-20.53 2.46-.52-.84-.74-2.25-.16-3.26C4.18 1.4 7.39 1.67 7.64 1.69 7.44 1.61 3.43.03 1.27 2c-2.01 1.83-1.3 5.66-.16 7.77Z" fill="#fff"/></svg><svg id="mitorun-studio" viewBox="0 0 72 72" fill="none" stroke="#fff" stroke-width="6"><path d="M69 36c0 18-15 33-33 33S3 54 3 36 18 3 36 3s33 15 33 33ZM4 44l16-16 16 16 16-16 16 16"/></svg></svg>